<?xml version="1.0" encoding="UTF-8"?>
<svg id="Capa_1" xmlns="http://www.w3.org/2000/svg" width="937.17" height="421.23" version="1.1" viewBox="0 0 937.17 421.23">
  <!-- Generator: Adobe Illustrator 29.3.1, SVG Export Plug-In . SVG Version: 2.1.0 Build 151)  -->
  <defs>
    <style>
      .st0 {
        fill: #bc3517;
      }
    </style>
  </defs>
  <path class="st0" d="M284.27,112.59l-204.21,8.12L0,193.81l57.35,58.02,64.03-67.3,89.8-8.12,6.96,49.89-104.43,9.28-73.1,91.67,42.93,93.98,257.59-16.24-56.86-292.4ZM158.96,346.97l-37.58-11.6,31.75-39.45,61.53-6.96,8.12,48.73-63.82,9.28Z"/>
  <polygon class="st0" points="55.83 0 55.83 75.43 362.01 75.43 374.42 409.58 937.17 392.18 937.17 310.96 454.48 335.32 598.78 8.12 55.83 0"/>
  <polygon class="st0" points="637.81 28.54 607.93 75.43 728.31 75.43 543.11 277.31 937.17 277.31 914.63 165.78 691.18 204.79 864.07 75.43 865.23 19.73 637.81 28.54"/>
</svg>