<?xml version="1.0" encoding="UTF-8"?>
<svg id="Capa_1" xmlns="http://www.w3.org/2000/svg" width="816.42" height="295.35" version="1.1" viewBox="0 0 816.42 295.35">
  <!-- Generator: Adobe Illustrator 29.3.1, SVG Export Plug-In . SVG Version: 2.1.0 Build 151)  -->
  <defs>
    <style>
      .st0 {
        fill: #010101;
      }

      .st1 {
        fill: #555;
      }

      .st2 {
        fill: #686868;
      }
    </style>
  </defs>
  <path class="st0" d="M333.5,39.05c12.65-1.8,21.84,14.04,7.1,19.25-14.86,5.03-22.83-16.46-7.31-19.21l.21-.03Z"/>
  <g>
    <path d="M579.44,65.07c2.03-1.77,3.79-6.3,5.78-8.96,5.05-7.78,10.66-15.78,14.5-23.94,3.34-6.79,6.47-14.16,9.86-20.79,2.59-5.02,6.83-12.32,13.26-11.29,7.6,2.04,5.88,12.2,3.16,17.81-10.43,24.68-25.45,49.39-31.29,75.84-6.88,28.04,8,18.75,23.98,9.19,10.06-6.54,21.86-14.75,31.1-23.06,8.37-7.74,15.19-16.99,25.97-21.79,8.96-4.22,23.4-8.82,32.49-3.4,2.12,1.48,3.09,3.6,2.25,5.39-2.71,4.58-9.64,4.5-14.24,6.4-9.54,3.34-20.46,9.17-27.27,16.85-2.99,3.46-5.69,8.2-4.84,12.85.81,4.2,5.16,5.37,8.84,4.03,10.06-4.15,19.39-14.54,27.11-22.15,4.02-4.58,11.82-7.07,14.88-.18,1.95,4.03-.06,10.29.64,14.34,2.41,9.74,18.44-4.2,21.7-7.75,6.24-5.56,12.58-19.02,21.14-19.59,7.64.17,9.15,9.32,6.66,15.16-1.84,5.39-4.31,11.26-5.9,17.09-1.24,4.1-3.36,12.22,3.02,12.39,1.81.09,4.02-.51,5.81-1.26,14.3-5.79,23.99-20.93,35.23-31.38,7.66-6.09,14.48-.27,12.96,8.67-.68,4.66-2.07,9.24-2.27,14.03-.64,9.5.19,18.86-.12,28.41-.91,53.97-26.06,91.36-71.07,121.95-44.52,30.43-105.01,56.97-159.65,40.22-31.91-12.22-21.38-40.75,2.32-58.12,31.95-23.95,74.98-35.9,113.67-43.62,25.8-5.37,50.46-6.72,76.37-8.63,10.98-.78,13.09-10.69,15.56-19.54,2.62-9.83,8.71-38.74,4.85-47.07-1.56-1.35-3.42.16-5.04,1.16-9.42,7.51-22.52,14.76-33.43,14.63-23.19-.46-10.77-26.96-29.73-16.57-5.33,2.35-11.38,3.45-16.21,2.09-2.4-.64-4.54-1.85-6.45-3.45-2.49-2.03-5.21-4.97-8.62-4.45-1.94.25-4.05,1.7-5.74,2.99-11.04,9.36-27.82,14.64-38.49,2.11-4.41-5.27-7.55-5.81-12.86-1.35-9.49,7.47-18.91,14.6-30.37,19.1-11.07,4.59-26.75,6.08-31.73-7.57-1.22-2.87-1.84-6.5-2.1-9.81-.43-1.95.16-7.62-2.85-6.4-15.83,13.63-36.58,42-59.75,32.41-7.9-3.37-13.07-12.02-10.76-20.28,6.11-21.39,30.96-51.64,51.39-60.26,7.3-2.72,16.68-1.2,21.92,4.91,1.15,1.15,3.04,3.85,4.33,2.68l.07-.05ZM571.51,78.08c-.49-5.3-5.61-8.95-11-6.82-6.87,2.37-12.16,8.23-16.79,13.59-2.75,2.06-27.27,38.74-17.2,37.32,15.47-6.13,32.15-25.97,42.89-38.38,1.35-1.63,2.32-3.6,2.12-5.58v-.13ZM772.93,195.89c-.66-1.3-5.01-.75-7.07-.44-53.34,7.41-107.92,15.46-155.89,41.38-61.47,34.51-19.63,45.57,26.87,38.02,38.84-5.92,74.2-25,105.5-48.03,7.19-5.46,14.11-11.35,20.51-17.71,2.36-2.69,11.13-10.35,10.12-13.15l-.04-.06Z"/>
    <path class="st1" d="M579.77,66.85c.14.4.2,1.31-.08,1.66-.38.42-1.43.34-1.63-.11-.19-.47-.12-1.9.02-2.39.27-.39,1.4.4,1.62.71l.07.13Z"/>
  </g>
  <g>
    <path d="M106.63,119.33c14.4-14.13,23.84-32.97,34.33-50.36,1.46-2.43,3.23-5.03,5.4-6.73,5.44-4.54,11.29-.03,10.95,6.36-.18,6.03-2.67,12.24-4.57,18.04-3.03,8.53-5.91,16.06-7.7,24.08-2.31,10.36,5.6,3.1,8.89-.55,9.88-10.78,18.41-24.21,25.67-36.86,2.58-4.33,4.95-9.72,8.97-12.81,3.93-3.07,8.91-.65,9.91,3.97.7,3.09-.28,6.63-1.36,9.77-5.66,15.36-12.3,29.79-14.78,45.84-1.36,8.91,4.92,6.02,9.81,2.79,7.75-5.02,14.18-10.71,20.95-16.71,14.44-12.95,30.08-31.22,45.27-42.14,6.45-4.67,12.11-7.27,19.41-5.44,13.81,3.78,19.14,19.78,20.63,32.72.83,4.07-1.04,13.98,3.62,10.69,5.8-4.84,10.6-10.62,15.46-16.57,3.9-4.51,7.54-10.58,13.47-12.39,3.76-.95,7.08,1.35,7.91,5.08.8,3.64-.33,7.67-1.37,11.29-2.75,8.78-11.73,35.05,5.77,31.4,7.7-1.3,14.38-6.63,17.92-13.48,2.58-4.92,3.97-10.34,6.94-15.11,11.11-17.22,31.43-32.99,52.28-27.62,5.55,1.55,9.66,7.69,2.84,10.87-2.4,1.18-5.13,1.65-7.73,2.27-4.85,1.07-9.05,2.55-13.47,4.92-5.82,3.09-11.4,7.36-15.46,12.38-7.89,10.06-12.14,23.95,5.33,24.22,21.71.26,43.83-11.92,63.87-21.31,2.95-1.37,6.06-2.7,9.29-2.79,3.43-.31,7.09,2.06,5.81,5.98-1.13,3.69-4.33,6.87-7.29,9.61-20.03,16.59-58.33,30.73-82.54,25.79-5.86-.85-10.28-6.16-16.21-6.49-2.98-.11-6.14,1.6-8.85,3.15-16.23,9.71-34.22,11.21-38.75-8.03-.59-2.44-.96-5.57-1.46-7.84-.22-1.22-.75-2.78-1.63-3.38-2.49-1.29-7.39,4.16-9.77,5.55-9.22,6.83-19.49,12.23-30.56,15.12-10.71,2.77-36.91,4.96-42.26-8.09-1.39-3.76-.51-8.58,2.21-12.2,2.08-3.32,11.15-9.09,13.14-3.71.96,2.89-2.65,8.26.37,10.26,10.7,3.15,34.45-10.08,35.37-21.04,1.13-7.55-1.26-24.17-9.23-24.76-18.22.69-65.46,72.24-91.66,69.49-22.02-.97-10.56-28.52-23.69-16.44-9.9,9.14-22.93,15.18-29.06,1.27-1.17-1.91-1.91-5.92-4.19-5.38-2.68,1.46-4.73,5.37-7.06,7.59-4.04,4.44-9.13,8.78-14.3,9.49-21.34,1.54-13.62-28.96-9.78-42.15.52-2.57,4.1-12.25,1.66-11.32-9.31,8.73-16.83,20.34-23.93,31.09-5.52,7.91-8.47,18.13-15.64,24.74-4.72,4.08-11.06,1.79-11.99-4.67-.89-9.71,3.87-18.77,6.74-27.69,1.26-3.51,3.64-9.73,3.3-11.98-.17-1.6-1.37-1.33-2.87-.2-10.09,9.48-19.1,20.29-26.97,31.66-4.12,5.47-7.87,12.56-14.52,15.02C3.81,147.56-.04,142.49,0,136.95c.19-9.33,5.25-18.29,8.27-26.83,5.68-13.32,18.07-49.23,28.63-55.79,3.74-2.15,8.18-.77,8.44,3.35.43,4-2.62,9.8-4.9,14.7-2.06,4.26-4,8.38-5.81,12.86-2.68,6.72-2.89,10.37,2.67,4.78,6.88-6.17,19.35-24.58,29.99-18.13,9.31,6.18,1.76,23.7,15.8,6.22,5.34-5.76,11.11-12.65,18.38-15.15,8.25-2.54,13.52,4.42,13.41,12.11.02,13.17-5.74,25.4-8.75,38.17-.34,1.44-2,7.2.41,6.13l.08-.04Z"/>
    <path class="st2" d="M106.23,120.65c-.18.64-.77,1.93-1.6,1.82-1.09-.75.09-2.89.52-3.69.43-.58,1.08,1.4,1.09,1.7v.16Z"/>
  </g>
</svg>