<?xml version="1.0" encoding="UTF-8"?>
<svg id="Capa_1" xmlns="http://www.w3.org/2000/svg" width="810.65" height="482.77" version="1.1" viewBox="0 0 810.65 482.77">
  <!-- Generator: Adobe Illustrator 29.3.1, SVG Export Plug-In . SVG Version: 2.1.0 Build 151)  -->
  <defs>
    <style>
      .st0 {
        fill: #fff;
      }
    </style>
  </defs>
  <polygon class="st0" points="0 20.06 99.39 8.03 99.39 324.15 7.25 334.19 0 20.06"/>
  <polygon class="st0" points="148.05 0 110.78 329.54 198.78 354.11 265.04 15.05 148.05 0"/>
  <polygon class="st0" points="303.35 21.07 228.81 354.11 310.6 386.21 424.48 72.23 303.35 21.07"/>
  <polygon class="st0" points="438.97 85.27 529.05 129.41 417.23 442.39 326.64 406.15 438.97 85.27"/>
  <polygon class="st0" points="536.29 171.11 446.22 448.3 529.05 482.77 623.26 234.74 536.29 171.11"/>
  <polygon class="st0" points="636.72 247.78 705.05 263.83 691.59 482.77 578.74 475.74 636.72 247.78"/>
  <polygon class="st0" points="730.93 274.86 799.26 274.86 810.65 463.34 720.58 475.74 730.93 274.86"/>
</svg>