<?xml version="1.0" encoding="UTF-8"?>
<svg id="Capa_1" xmlns="http://www.w3.org/2000/svg" width="439.03" height="707.78" version="1.1" viewBox="0 0 439.03 707.78">
  <!-- Generator: Adobe Illustrator 29.3.1, SVG Export Plug-In . SVG Version: 2.1.0 Build 151)  -->
  <defs>
    <style>
      .st0 {
        fill: #bc3517;
      }
    </style>
  </defs>
  <path class="st0" d="M0,458.32l193.04,249.46,215.82-9.28,30.17-78.9L314.88,75.42l51.05-23.81L349.69,0l-101.64,51.61v60.51l-11.32.91-10.61.86-7.54,7.52-17.49,17.44-8.52,8.5v57.85l30.41-1.48,25.06-1.22v15.12l-29.31,11.48-18.43,7.22v69.73l26.82,2.02,20.91,1.57v17.66l-10.35.7-13.68.92-7.97,11.16-10.6,14.84-5.4,7.56v49.5l22.06,5.44,25.94,6.4v73.52l-119.96-129.59L0,458.32ZM221.58,174.75v-15.37l17.49-17.44,33.39-2.7,7.42,22.79-14.84,10.6-43.46,2.12ZM229.31,256.09l43.46-17.02,8.48,20.03-20.14,22.42-31.8-2.39v-23.05ZM229.05,371.76l10.6-14.84,39.75-2.68,2.12,29.71-24.53,12.19-27.94-6.89v-17.49Z"/>
</svg>