<?xml version="1.0" encoding="UTF-8"?>
<svg id="Capa_1" xmlns="http://www.w3.org/2000/svg" width="810.77" height="315.52" version="1.1" viewBox="0 0 810.77 315.52">
  <!-- Generator: Adobe Illustrator 29.3.1, SVG Export Plug-In . SVG Version: 2.1.0 Build 151)  -->
  <polygon points="173.07 245.31 617.73 247.57 617.73 282.59 184.23 282.59 133.53 315.52 133.53 219.34 173.07 245.31"/>
  <path d="M810.77,103.84L800.12,0l-439.33,22.63-201.03,5.33L29.29,53.25,0,133.13l41.27,58.58,193.66,18.63,382.8-1.13v-115.77l193.04,10.4ZM71.89,103.84l38.61-22.63,41.78-.22v89.93l-80.39-13.83v-53.25ZM184.23,176.42v-95.59l40.76-.21v97.78h-29.29l-11.47-1.97ZM585.78,178.39h-328.83v-97.94l109.17-.57,219.67,11.84v86.67Z"/>
</svg>