<?xml version="1.0" encoding="UTF-8"?>
<svg id="Capa_1" xmlns="http://www.w3.org/2000/svg" width="328.24" height="766.3" version="1.1" viewBox="0 0 328.24 766.3">
  <!-- Generator: Adobe Illustrator 29.3.1, SVG Export Plug-In . SVG Version: 2.1.0 Build 151)  -->
  <path d="M323.17,249.67l-34.22-57.03-76.04,3.8-22.81,30.42-19.68,83.64h-.79l-3.6-46.89,13.94-119.13,27.88-79.84L254.73,0H0l83.64,79.85,21.55,60.83-2.54,180.59,10.14,160.32,34.22,152.08,3.52,60.71-28.08,67.12,50,4.79,50.69-19.91-34.93-53.38,1.59-52.97,16.78,2.5h31.69l55.76-12.67,34.22-55.76-5.07-324.44ZM220.51,231.93l41.83-11.41,30.41,39.29,1.64,50.69h-81.99l8.1-78.57ZM297.67,411.78l1.56,48.05h-95.19v-48.05h93.63ZM204.71,385.16l4.96-48.05h85.59l1.56,48.05h-92.11ZM275.01,584.25l-70.97,11.4v-109.22h96.05l1.53,47.12-26.61,50.7Z"/>
</svg>