<svg xmlns="http://www.w3.org/2000/svg" version="1.1" xmlns:xlink="http://www.w3.org/1999/xlink" xmlns:svgjs="http://svgjs.dev/svgjs" width="36" height="36"><svg id="SvgjsSvg1006" xmlns="http://www.w3.org/2000/svg" width="36" height="36" version="1.1" viewBox="0 0 36 36">
  <!-- Generator: Adobe Illustrator 29.3.1, SVG Export Plug-In . SVG Version: 2.1.0 Build 151)  -->
  <defs>
    <style>
      .st0 {
        fill: #bc3517;
      }
    </style>
  </defs>
  <path class="st0" d="M27.36,4.18l2.83-1.32-.9-2.86-5.64,2.86v3.36l-.63.05-.59.05-.42.42-.97.97-.47.47v3.21l1.69-.08,1.39-.07v.84l-1.63.64-1.02.4v3.87l1.49.11,1.16.09v.98l-.57.04-.76.05-.44.62-.59.82-.3.42v2.75l1.22.3,1.44.35v4.08l-6.66-7.19-.49-10.45L1.12,23.86l8.77,1.58,8.53,10.57,11.98-.51,1.67-4.38-4.71-26.92ZM22.18,9.7v-.85l.97-.97,1.85-.15.41,1.26-.82.59-2.41.12ZM22.61,14.21l2.41-.94.47,1.11-1.12,1.24-1.76-.13v-1.28ZM22.59,20.63l.59-.82,2.21-.15.12,1.65-1.36.68-1.55-.38v-.97Z"></path>
</svg><style>@media (prefers-color-scheme: light) { :root { filter: none; } }
@media (prefers-color-scheme: dark) { :root { filter: none; } }
</style></svg>